<svg width="422" height="116" viewBox="0 0 422 116" fill="none" xmlns="http://www.w3.org/2000/svg">
<path fill-rule="evenodd" clip-rule="evenodd" d="M16.3008 7.54907V0.549072H0.300781V65.0491C0.300781 92.9395 22.9104 115.549 50.8008 115.549C78.6912 115.549 101.301 92.9395 101.301 65.0491V0.549072H85.3008V7.54907H58.3008V0.549072H42.3008V7.54907H16.3008ZM42.3007 98.4941C27.4982 94.7435 16.5096 81.4241 16.3037 65.5044C18.009 65.9173 19.6836 66.4626 21.312 67.1372C25.4371 68.8458 29.1852 71.3503 32.3424 74.5074C35.4996 77.6646 38.004 81.4128 39.7127 85.5378C41.4143 89.646 42.2935 94.0478 42.3007 98.4941ZM43.6561 63.1937C46.1616 65.6992 48.3875 68.4577 50.3008 71.4198C52.2141 68.4577 54.44 65.6992 56.9454 63.1937C59.4509 60.6883 62.2094 58.4624 65.1715 56.5491C62.2094 54.6357 59.4509 52.4098 56.9454 49.9044C54.44 47.399 52.2141 44.6405 50.3008 41.6784C48.3875 44.6405 46.1616 47.399 43.6561 49.9044C41.1507 52.4098 38.3922 54.6357 35.4301 56.5491C38.3922 58.4624 41.1507 60.6883 43.6561 63.1937ZM85.3 65.2776C85.1938 81.6545 73.6769 95.323 58.3008 98.7316V98.5491C58.3008 94.0841 59.1802 89.6629 60.8889 85.5378C62.5975 81.4128 65.102 77.6646 68.2591 74.5074C71.4163 71.3503 75.1645 68.8458 79.2895 67.1372C81.2359 66.3309 83.2483 65.7093 85.3 65.2776ZM41.088 23.5491C40.7142 24.9106 40.2553 26.2504 39.7127 27.5603C38.004 31.6854 35.4996 35.4335 32.3424 38.5907C29.1852 41.7479 25.4371 44.2523 21.312 45.961C19.6826 46.6359 18.007 47.1814 16.3008 47.5945V23.5491H41.088ZM85.3008 47.8207V23.5491H59.5136C59.8873 24.9106 60.3463 26.2504 60.8889 27.5603C62.5975 31.6854 65.102 35.4335 68.2591 38.5907C71.4163 41.7479 75.1645 44.2523 79.2895 45.961C81.2362 46.7673 83.2488 47.389 85.3008 47.8207Z" fill="white"></path>
<path d="M128.082 9.86621V52.5491H155.01V44.8146H136.962V9.86621H128.082Z" fill="white"></path>
<path d="M263.696 52.5491H272.29V21.2674H263.696V52.5491Z" fill="white"></path>
<path d="M263.696 9.86621V18.4601H272.29V9.86621H263.696Z" fill="white"></path>
<path fill-rule="evenodd" clip-rule="evenodd" d="M276.86 64.0075V21.2674H284.881V24.5126C285.807 23.422 286.953 22.5504 288.318 21.8976C290.113 21.0191 292.157 20.5799 294.448 20.5799C297.428 20.5799 300.12 21.3056 302.527 22.757C304.933 24.2084 306.843 26.1755 308.256 28.6581C309.669 31.1026 310.376 33.8527 310.376 36.9082C310.376 39.9256 309.669 42.6757 308.256 45.1583C306.881 47.641 304.99 49.608 302.584 51.0594C300.178 52.5109 297.447 53.2366 294.391 53.2366C292.252 53.2366 290.266 52.8546 288.433 52.0907C287.304 51.5862 286.311 50.9382 285.453 50.1467V64.0075H276.86ZM293.36 45.5021C294.964 45.5021 296.377 45.1392 297.599 44.4135C298.822 43.6878 299.777 42.6757 300.464 41.377C301.152 40.0784 301.495 38.5888 301.495 36.9082C301.495 35.2277 301.152 33.7571 300.464 32.4967C299.777 31.1981 298.822 30.1859 297.599 29.4602C296.377 28.6963 294.964 28.3144 293.36 28.3144C291.832 28.3144 290.457 28.6772 289.235 29.4029C288.051 30.1286 287.115 31.1408 286.427 32.4394C285.778 33.738 285.453 35.2277 285.453 36.9082C285.453 38.5888 285.778 40.0784 286.427 41.377C287.115 42.6757 288.051 43.6878 289.235 44.4135C290.457 45.1392 291.832 45.5021 293.36 45.5021Z" fill="white"></path>
<path d="M316.956 50.8303C319.515 52.4344 322.513 53.2366 325.951 53.2366C328.395 53.2366 330.515 52.8355 332.31 52.0334C334.105 51.1931 335.5 50.0473 336.493 48.5959C337.524 47.1445 338.039 45.4448 338.039 43.4968C338.039 41.2433 337.352 39.3527 335.977 37.8249C334.602 36.2589 332.616 35.094 330.019 34.3301L325.034 32.8405C324.27 32.6113 323.621 32.363 323.086 32.0956C322.59 31.8283 322.227 31.5228 321.998 31.179C321.768 30.8352 321.654 30.4533 321.654 30.0331C321.654 29.231 321.959 28.6008 322.571 28.1425C323.22 27.6841 324.098 27.455 325.206 27.455C326.734 27.455 328.09 27.856 329.274 28.6581C330.496 29.422 331.336 30.4533 331.795 31.7519L338.154 28.7727C337.199 26.1755 335.557 24.1702 333.227 22.757C330.935 21.3056 328.262 20.5799 325.206 20.5799C322.876 20.5799 320.813 21.0001 319.018 21.8403C317.223 22.6424 315.829 23.7692 314.836 25.2206C313.843 26.672 313.346 28.3716 313.346 30.3196C313.346 32.5349 314.034 34.4637 315.409 36.1061C316.784 37.7103 318.751 38.8752 321.31 39.601L326.638 41.0906C327.326 41.2816 327.899 41.5107 328.357 41.7781C328.815 42.0455 329.159 42.351 329.388 42.6948C329.617 43.0003 329.732 43.3823 329.732 43.8406C329.732 44.7191 329.407 45.4066 328.758 45.9031C328.109 46.3997 327.173 46.6479 325.951 46.6479C324.27 46.6479 322.742 46.1705 321.367 45.2156C319.992 44.2607 318.904 42.9431 318.102 41.2625L311.8 44.2416C312.716 46.9917 314.435 49.1879 316.956 50.8303Z" fill="white"></path>
<path d="M374.035 21.2674H382.056V25.0462C382.643 23.9029 383.464 22.9871 384.52 22.2986C386.277 21.1528 388.377 20.5799 390.822 20.5799C393.419 20.5799 395.692 21.2483 397.64 22.5851C398.798 23.3427 399.703 24.2561 400.355 25.3256C401.183 24.1154 402.169 23.1447 403.312 22.4133C405.221 21.191 407.456 20.5799 410.015 20.5799C412.268 20.5799 414.254 21.0764 415.973 22.0695C417.73 23.0626 419.105 24.4567 420.098 26.2518C421.091 28.0088 421.588 30.0714 421.588 32.4394V52.5491H412.994V34.2728C412.994 33.0505 412.765 32.0002 412.307 31.1217C411.886 30.2432 411.275 29.5557 410.473 29.0591C409.671 28.5626 408.697 28.3144 407.551 28.3144C406.444 28.3144 405.47 28.5626 404.629 29.0591C403.827 29.5557 403.197 30.2432 402.739 31.1217C402.319 32.0002 402.108 33.0505 402.108 34.2728V52.5491H393.515V34.2728C393.515 33.0505 393.285 32.0002 392.827 31.1217C392.407 30.2432 391.796 29.5557 390.994 29.0591C390.192 28.5626 389.218 28.3144 388.072 28.3144C386.964 28.3144 385.99 28.5626 385.15 29.0591C384.348 29.5557 383.718 30.2432 383.259 31.1217C382.839 32.0002 382.629 33.0505 382.629 34.2728V52.5491H374.035V21.2674Z" fill="white"></path>
<path d="M352.686 53.2366C350.165 53.2366 348.007 52.7018 346.212 51.6324C344.455 50.5247 343.118 48.9969 342.202 47.049C341.285 45.101 340.827 42.8284 340.827 40.2312V21.2674H349.421V39.5437C349.421 40.7277 349.65 41.7781 350.108 42.6948C350.604 43.5732 351.292 44.2607 352.171 44.7573C353.049 45.2538 354.042 45.5021 355.15 45.5021C356.296 45.5021 357.289 45.2538 358.129 44.7573C359.007 44.2607 359.676 43.5732 360.134 42.6948C360.631 41.7781 360.879 40.7277 360.879 39.5437V21.2674H369.473V52.5491H361.452V48.7423C360.723 50.1158 359.691 51.1746 358.358 51.9188C356.754 52.7973 354.863 53.2366 352.686 53.2366Z" fill="white"></path>
<path fill-rule="evenodd" clip-rule="evenodd" d="M243.622 53.2366C240.529 53.2366 237.702 52.53 235.143 51.1168C232.622 49.7036 230.598 47.7747 229.07 45.3302C227.581 42.8475 226.836 40.0402 226.836 36.9082C226.836 33.738 227.581 30.9307 229.07 28.4863C230.598 26.0417 232.622 24.1129 235.143 22.6997C237.702 21.2865 240.529 20.5799 243.622 20.5799C246.716 20.5799 249.524 21.2865 252.044 22.6997C254.565 24.1129 256.571 26.0417 258.06 28.4863C259.588 30.9307 260.352 33.738 260.352 36.9082C260.352 40.0402 259.588 42.8475 258.06 45.3302C256.571 47.7747 254.565 49.7036 252.044 51.1168C249.524 52.53 246.716 53.2366 243.622 53.2366ZM243.622 45.5021C245.188 45.5021 246.544 45.1392 247.69 44.4135C248.874 43.6878 249.791 42.6757 250.44 41.377C251.128 40.0784 251.472 38.5888 251.472 36.9082C251.472 35.2277 251.128 33.7571 250.44 32.4967C249.791 31.1981 248.874 30.1859 247.69 29.4602C246.544 28.6963 245.188 28.3144 243.622 28.3144C242.057 28.3144 240.681 28.6963 239.497 29.4602C238.313 30.1859 237.378 31.1981 236.69 32.4967C236.041 33.7571 235.716 35.2277 235.716 36.9082C235.716 38.5888 236.041 40.0784 236.69 41.377C237.378 42.6757 238.313 43.6878 239.497 44.4135C240.681 45.1392 242.057 45.5021 243.622 45.5021Z" fill="white"></path>
<path fill-rule="evenodd" clip-rule="evenodd" d="M201.316 63.9503C203.378 64.7523 205.613 65.1534 208.019 65.1534C211.036 65.1534 213.691 64.5422 215.982 63.32C218.312 62.0978 220.146 60.3981 221.483 58.221C222.819 56.0821 223.488 53.6376 223.488 50.8876V21.2674H215.467V24.553C214.523 23.4456 213.453 22.5795 212.258 21.9549C210.578 21.0382 208.611 20.5799 206.357 20.5799C203.493 20.5799 200.934 21.2292 198.68 22.5278C196.427 23.8265 194.651 25.6216 193.352 27.9133C192.053 30.1668 191.404 32.7641 191.404 35.7051C191.404 38.6461 192.053 41.2816 193.352 43.6115C194.651 45.9031 196.446 47.7174 198.737 49.0542C201.029 50.3528 203.626 51.0021 206.529 51.0021C208.783 51.0021 210.75 50.582 212.43 49.7417C213.341 49.2655 214.162 48.6603 214.894 47.926V50.8876C214.894 52.2244 214.607 53.3893 214.035 54.3824C213.5 55.3755 212.717 56.1203 211.686 56.6168C210.654 57.1516 209.432 57.4189 208.019 57.4189C206.224 57.4189 204.677 56.9988 203.378 56.1584C202.079 55.3182 201.22 54.1724 200.8 52.7209L192.836 55.5283C193.486 57.4762 194.536 59.1568 195.987 60.57C197.477 62.0214 199.253 63.1481 201.316 63.9503ZM211.514 42.2937C210.444 42.9048 209.184 43.2104 207.732 43.2104C206.281 43.2104 204.982 42.9048 203.836 42.2937C202.729 41.6444 201.85 40.7659 201.201 39.6583C200.59 38.5506 200.284 37.2711 200.284 35.8196C200.284 34.3301 200.59 33.0314 201.201 31.9238C201.85 30.778 202.729 29.8995 203.836 29.2883C204.982 28.639 206.281 28.3144 207.732 28.3144C209.146 28.3144 210.387 28.639 211.456 29.2883C212.526 29.8995 213.366 30.778 213.977 31.9238C214.588 33.0314 214.894 34.3301 214.894 35.8196C214.894 37.3093 214.588 38.6079 213.977 39.7156C213.404 40.8232 212.583 41.6826 211.514 42.2937Z" fill="white"></path>
<path fill-rule="evenodd" clip-rule="evenodd" d="M172.591 53.2366C169.497 53.2366 166.671 52.53 164.112 51.1168C161.591 49.7036 159.567 47.7747 158.039 45.3302C156.549 42.8475 155.804 40.0402 155.804 36.9082C155.804 33.738 156.549 30.9307 158.039 28.4863C159.567 26.0417 161.591 24.1129 164.112 22.6997C166.671 21.2865 169.497 20.5799 172.591 20.5799C175.685 20.5799 178.492 21.2865 181.013 22.6997C183.534 24.1129 185.539 26.0417 187.029 28.4863C188.557 30.9307 189.32 33.738 189.32 36.9082C189.32 40.0402 188.557 42.8475 187.029 45.3302C185.539 47.7747 183.534 49.7036 181.013 51.1168C178.492 52.53 175.685 53.2366 172.591 53.2366ZM172.591 45.5021C174.157 45.5021 175.513 45.1392 176.659 44.4135C177.843 43.6878 178.76 42.6757 179.409 41.377C180.096 40.0784 180.44 38.5888 180.44 36.9082C180.44 35.2277 180.096 33.7571 179.409 32.4967C178.76 31.1981 177.843 30.1859 176.659 29.4602C175.513 28.6963 174.157 28.3144 172.591 28.3144C171.025 28.3144 169.65 28.6963 168.466 29.4602C167.282 30.1859 166.346 31.1981 165.659 32.4967C165.009 33.7571 164.685 35.2277 164.685 36.9082C164.685 38.5888 165.009 40.0784 165.659 41.377C166.346 42.6757 167.282 43.6878 168.466 44.4135C169.65 45.1392 171.025 45.5021 172.591 45.5021Z" fill="white"></path>
<path d="M134.429 102.541C136.349 103.597 138.573 104.125 141.101 104.125C143.661 104.125 145.885 103.597 147.773 102.541C149.693 101.485 151.181 100.045 152.237 98.2211C153.293 96.3651 153.821 94.2531 153.821 91.8851V67.7891H149.981V91.8851C149.981 93.613 149.597 95.1331 148.829 96.4451C148.093 97.725 147.053 98.733 145.709 99.4691C144.397 100.173 142.861 100.525 141.101 100.525C139.341 100.525 137.789 100.173 136.445 99.4691C135.133 98.733 134.093 97.725 133.325 96.4451C132.589 95.1331 132.221 93.613 132.221 91.8851V67.7891H128.381V91.8851C128.381 94.2531 128.909 96.3651 129.965 98.2211C131.021 100.045 132.509 101.485 134.429 102.541Z" fill="#AAAAAA"></path>
<path d="M186.242 77.821V103.549H189.842V77.821H186.242Z" fill="#AAAAAA"></path>
<path d="M186.242 67.7891V73.0691H189.842V67.7891H186.242Z" fill="#AAAAAA"></path>
<path d="M284.511 103.549V77.821H288.111V103.549H284.511Z" fill="#AAAAAA"></path>
<path d="M284.511 73.0691V67.7891H288.111V73.0691H284.511Z" fill="#AAAAAA"></path>
<path d="M298.551 101.821C299.799 103.165 301.575 103.837 303.879 103.837C304.167 103.837 304.551 103.805 305.031 103.741C305.511 103.709 305.943 103.645 306.327 103.549V100.333C306.071 100.365 305.767 100.397 305.415 100.429C305.214 100.447 305.029 100.46 304.859 100.468C304.817 100.47 304.775 100.472 304.734 100.473C304.653 100.476 304.576 100.477 304.503 100.477C303.447 100.477 302.599 100.285 301.959 99.9011C301.351 99.5171 300.919 99.0051 300.663 98.3651C300.407 97.6931 300.279 96.925 300.279 96.061V81.4211H305.943V77.821H300.279V71.8691H296.679V74.0291C296.679 75.1171 296.359 76.0291 295.719 76.7651C295.079 77.4691 294.215 77.821 293.127 77.821H291.927V81.4211H296.679V96.061C296.679 98.5571 297.303 100.477 298.551 101.821Z" fill="#AAAAAA"></path>
<path d="M310.153 113.965C310.697 114.061 311.225 114.109 311.737 114.109C313.433 114.109 314.873 113.757 316.057 113.053C317.241 112.381 318.217 111.485 318.985 110.365C319.785 109.245 320.441 108.061 320.953 106.813L332.713 77.821H328.729L320.351 99.0589L311.929 77.821H308.041L318.331 103.569L317.401 105.757C316.601 107.613 315.785 108.861 314.953 109.501C314.121 110.173 312.921 110.509 311.353 110.509C310.841 110.509 310.329 110.461 309.817 110.365C309.337 110.301 308.937 110.253 308.617 110.221V113.581C309.129 113.773 309.641 113.901 310.153 113.965Z" fill="#AAAAAA"></path>
<path d="M263.977 102.253C265.833 103.501 267.993 104.125 270.457 104.125C272.249 104.125 273.833 103.821 275.209 103.213C276.585 102.573 277.657 101.693 278.425 100.573C279.225 99.4531 279.625 98.1891 279.625 96.7811C279.625 95.053 279.033 93.5491 277.849 92.269C276.697 90.9891 275.081 90.045 273.001 89.4371L268.729 88.1891C268.281 88.061 267.753 87.8691 267.145 87.613C266.569 87.3571 266.057 86.9731 265.609 86.4611C265.161 85.949 264.937 85.261 264.937 84.3971C264.937 83.277 265.369 82.3491 266.233 81.613C267.097 80.8771 268.249 80.509 269.689 80.509C271.161 80.509 272.489 80.925 273.673 81.7571C274.889 82.5571 275.817 83.6771 276.457 85.1171L279.529 83.6771C278.793 81.6611 277.529 80.0931 275.737 78.9731C273.977 77.821 272.009 77.2451 269.833 77.2451C268.233 77.2451 266.777 77.5491 265.465 78.157C264.153 78.7651 263.113 79.6291 262.345 80.7491C261.577 81.8691 261.193 83.1811 261.193 84.6851C261.193 86.285 261.721 87.6931 262.777 88.9091C263.833 90.1251 265.545 91.0691 267.913 91.7411L271.609 92.7971C272.121 92.925 272.713 93.1331 273.385 93.4211C274.057 93.709 274.649 94.1251 275.161 94.6691C275.673 95.1811 275.929 95.8851 275.929 96.7811C275.929 97.9971 275.401 98.9891 274.345 99.7571C273.289 100.493 271.993 100.861 270.457 100.861C268.857 100.861 267.385 100.397 266.041 99.4691C264.729 98.5411 263.705 97.2931 262.969 95.725L259.945 97.165C260.777 99.3091 262.121 101.005 263.977 102.253Z" fill="#AAAAAA"></path>
<path d="M246.75 103.549V77.821H250.35V80.6048C250.924 79.7672 251.676 79.0793 252.606 78.5411C253.854 77.837 255.358 77.485 257.118 77.485H258.75V81.0851H256.494C254.638 81.0851 253.15 81.6611 252.03 82.813C250.91 83.9651 250.35 85.597 250.35 87.709V103.549H246.75Z" fill="#AAAAAA"></path>
<path fill-rule="evenodd" clip-rule="evenodd" d="M223.843 102.397C225.795 103.549 227.971 104.125 230.371 104.125C232.131 104.125 233.731 103.837 235.171 103.261C236.643 102.653 237.907 101.869 238.963 100.909C240.019 99.9171 240.803 98.8451 241.315 97.6931L238.243 96.061C237.443 97.4051 236.403 98.5251 235.123 99.4211C233.843 100.317 232.259 100.765 230.371 100.765C228.739 100.765 227.203 100.349 225.763 99.5171C224.355 98.6851 223.235 97.5171 222.403 96.0131C221.756 94.7722 221.423 93.3641 221.404 91.7891H241.651C241.685 91.5657 241.715 91.3469 241.74 91.1328L241.755 91.0011C241.77 90.8618 241.783 90.7244 241.795 90.5891C241.815 90.328 241.829 90.0859 241.836 89.8626L241.839 89.7575L241.841 89.682C241.842 89.6144 241.843 89.5488 241.843 89.485C241.843 87.949 241.571 86.4611 241.027 85.0211C240.483 83.5491 239.699 82.2371 238.675 81.0851C237.651 79.9011 236.403 78.9731 234.931 78.3011C233.491 77.597 231.843 77.2451 229.987 77.2451C227.651 77.2451 225.539 77.821 223.651 78.9731C221.795 80.1251 220.323 81.709 219.235 83.725C218.147 85.709 217.603 87.9971 217.603 90.5891C217.603 93.1811 218.163 95.501 219.283 97.5491C220.403 99.597 221.923 101.213 223.843 102.397ZM237.984 88.4291H221.461C221.58 87.2943 221.878 86.2702 222.355 85.3571C223.123 83.8531 224.179 82.6851 225.523 81.8531C226.899 81.0211 228.387 80.605 229.987 80.605C231.587 80.605 233.027 81.0211 234.307 81.8531C235.587 82.6531 236.563 83.7571 237.235 85.165C237.741 86.1539 237.99 87.2419 237.984 88.4291Z" fill="#AAAAAA"></path>
<path d="M202.635 103.549L192.603 77.821H196.635L204.437 98.6555L212.283 77.821H216.363L206.235 103.549H202.635Z" fill="#AAAAAA"></path>
<path d="M160.166 103.549V77.821H163.766V81.0078C164.365 80.0844 165.133 79.3101 166.07 78.6851C167.542 77.725 169.238 77.2451 171.158 77.2451C172.982 77.2451 174.614 77.6611 176.054 78.493C177.526 79.3251 178.678 80.4771 179.51 81.949C180.374 83.389 180.806 85.0211 180.806 86.8451V103.549H177.206V88.2371C177.206 86.6691 176.918 85.3411 176.342 84.2531C175.798 83.165 175.014 82.3331 173.99 81.7571C172.998 81.149 171.846 80.8451 170.534 80.8451C169.222 80.8451 168.054 81.149 167.03 81.7571C166.006 82.3331 165.206 83.1811 164.63 84.3011C164.054 85.389 163.766 86.701 163.766 88.2371V103.549H160.166Z" fill="#AAAAAA"></path>
</svg>